<?xml version="1.0" encoding="UTF-8" standalone="no"?>
<!-- Created with Inkscape (http://www.inkscape.org/) -->

<svg
   xmlns:dc="http://purl.org/dc/elements/1.1/"
   xmlns:cc="http://creativecommons.org/ns#"
   xmlns:rdf="http://www.w3.org/1999/02/22-rdf-syntax-ns#"
   xmlns:svg="http://www.w3.org/2000/svg"
   xmlns="http://www.w3.org/2000/svg"
   xmlns:sodipodi="http://sodipodi.sourceforge.net/DTD/sodipodi-0.dtd"
   xmlns:inkscape="http://www.inkscape.org/namespaces/inkscape"
   id="svg2"
   version="1.1"
   inkscape:version="0.48.3.1 r9886"
   width="169.30125"
   height="169.3"
   xml:space="preserve"
   sodipodi:docname="bitbucket.svg"><metadata
     id="metadata8"><rdf:RDF><cc:Work
         rdf:about=""><dc:format>image/svg+xml</dc:format><dc:type
           rdf:resource="http://purl.org/dc/dcmitype/StillImage" /><dc:title></dc:title></cc:Work></rdf:RDF></metadata><defs
     id="defs6" /><sodipodi:namedview
     pagecolor="#ffffff"
     bordercolor="#666666"
     borderopacity="1"
     objecttolerance="10"
     gridtolerance="10"
     guidetolerance="10"
     inkscape:pageopacity="0"
     inkscape:pageshadow="2"
     inkscape:window-width="1920"
     inkscape:window-height="1156"
     id="namedview4"
     showgrid="false"
     inkscape:zoom="3.9427572"
     inkscape:cx="57.698699"
     inkscape:cy="123.54705"
     inkscape:window-x="0"
     inkscape:window-y="22"
     inkscape:window-maximized="1"
     inkscape:current-layer="g10" /><g
     id="g10"
     inkscape:groupmode="layer"
     inkscape:label="socialicious-template"
     transform="matrix(1.25,0,0,-1.25,0,169.3)"
     style="display:inline"><g
       id="g12"
       transform="translate(103.3652,100.9312)"><path
         style="fill:#c5c7c9;fill-opacity:1;fill-rule:nonzero;stroke:none"
         d="M 84.40625,4.46875 C 52.579455,4.788145 15.349213,13.42954 15.375,27.53125 19.603713,60.656136 24.371441,79.87378 27.46875,100 c 0.887704,4.2674 16.890451,19.46875 58.15625,19.46875 42.83301,0 55.92684,-17.05906 56.65625,-19.78125 l 11.875,-72.8125 C 154.02944,15.482813 121.26218,4.46875 84.40625,4.46875 z m 0.25,12.03125 c 24.66308,0 44.65625,4.149 44.65625,9.25 0,5.101 -19.99317,9.21875 -44.65625,9.21875 C 59.993167,34.96875 40,30.851 40,25.75 40,20.649 59.993167,16.5 84.65625,16.5 z M 84.75,59.46875 c 12.336723,0 22.3125,10.154487 22.3125,22.65625 0,12.501763 -9.975777,22.625 -22.3125,22.625 -12.336723,0 -22.34375,-10.123237 -22.34375,-22.625 0,-12.501763 10.007027,-22.65625 22.34375,-22.65625 z"
         transform="matrix(0.8,0,0,-0.8,-103.3652,34.5088)"
         id="path14"
         inkscape:connector-curvature="0" /></g><path
       d="M 105.40562,17.823279 C 103.39698,10.888809 90.702956,3.3071199 68.560155,3.5223318 40.353914,3.6658064 31.36903,12.130011 30.202334,17.710332 c -0.792731,4.345893 -2.080373,10.064762 -3.371644,16.199014 -5.062785,18.894571 5.717871,-3.6253 40.576428,-3.814196 36.097652,-0.238526 45.031732,23.217466 41.204462,3.947451 -0.86085,-4.685345 -2.5932,-13.268275 -3.20596,-16.219322 z"
       style="fill:#c5c7c9;fill-opacity:1;fill-rule:nonzero;stroke:none;display:inline"
       id="path14-0"
       inkscape:connector-curvature="0"
       sodipodi:nodetypes="ccccccc" /><path
       sodipodi:type="arc"
       style="fill:#c5c7c9;fill-opacity:1;stroke:none"
       id="path3084"
       sodipodi:cx="84.784508"
       sodipodi:cy="82.677223"
       sodipodi:rx="7.9359379"
       sodipodi:ry="7.7117586"
       d="m 92.720446,82.677223 a 7.9359379,7.7117586 0 1 1 -15.871876,0 7.9359379,7.7117586 0 1 1 15.871876,0 z"
       transform="matrix(1.1525423,0,0,-1.1860465,-30.033606,167.62065)"
       inkscape:transform-center-x="-2.7129387"
       inkscape:transform-center-y="2.2600311" /></g></svg>